<svg viewBox="0 0 760 300" xmlns="http://www.w3.org/2000/svg" font-family="'Helvetica Neue',Arial,sans-serif">

  <!-- 左側：従来 -->
  <text x="130" y="28" text-anchor="middle" font-size="15" font-weight="bold" fill="#333">従来（N×M個の実装）</text>

  <!-- AI Apps -->
  <rect x="20" y="50" width="90" height="36" rx="6" fill="#dbeafe" stroke="#3b82f6" stroke-width="1.5"/>
  <text x="65" y="73" text-anchor="middle" font-size="13" fill="#1e40af">AI App A</text>
  <rect x="20" y="110" width="90" height="36" rx="6" fill="#dbeafe" stroke="#3b82f6" stroke-width="1.5"/>
  <text x="65" y="133" text-anchor="middle" font-size="13" fill="#1e40af">AI App A</text>
  <rect x="20" y="170" width="90" height="36" rx="6" fill="#dbeafe" stroke="#3b82f6" stroke-width="1.5"/>
  <text x="65" y="193" text-anchor="middle" font-size="13" fill="#1e40af">AI App B</text>
  <rect x="20" y="230" width="90" height="36" rx="6" fill="#dbeafe" stroke="#3b82f6" stroke-width="1.5"/>
  <text x="65" y="253" text-anchor="middle" font-size="13" fill="#1e40af">AI App B</text>

  <!-- Tools -->
  <rect x="210" y="70" width="90" height="36" rx="6" fill="#dcfce7" stroke="#16a34a" stroke-width="1.5"/>
  <text x="255" y="93" text-anchor="middle" font-size="13" fill="#15803d">Tool 1</text>
  <rect x="210" y="190" width="90" height="36" rx="6" fill="#dcfce7" stroke="#16a34a" stroke-width="1.5"/>
  <text x="255" y="213" text-anchor="middle" font-size="13" fill="#15803d">Tool 2</text>

  <!-- Arrows with labels -->
  <line x1="110" y1="68" x2="210" y2="88" stroke="#f59e0b" stroke-width="1.5" marker-end="url(#arr)"/>
  <text x="160" y="70" text-anchor="middle" font-size="10" fill="#b45309">独自実装</text>
  <line x1="110" y1="128" x2="210" y2="208" stroke="#f59e0b" stroke-width="1.5" marker-end="url(#arr)"/>
  <text x="152" y="175" text-anchor="middle" font-size="10" fill="#b45309">独自実装</text>
  <line x1="110" y1="188" x2="210" y2="88" stroke="#f59e0b" stroke-width="1.5" marker-end="url(#arr)"/>
  <text x="168" y="128" text-anchor="middle" font-size="10" fill="#b45309">独自実装</text>
  <line x1="110" y1="248" x2="210" y2="208" stroke="#f59e0b" stroke-width="1.5" marker-end="url(#arr)"/>
  <text x="160" y="245" text-anchor="middle" font-size="10" fill="#b45309">独自実装</text>

  <!-- 区切り線 -->
  <line x1="380" y1="30" x2="380" y2="280" stroke="#cbd5e1" stroke-width="1.5" stroke-dasharray="6,4"/>

  <!-- 右側：MCP -->
  <text x="570" y="28" text-anchor="middle" font-size="15" font-weight="bold" fill="#333">MCP導入後（統一プロトコル）</text>

  <!-- AI Apps -->
  <rect x="400" y="90" width="90" height="36" rx="6" fill="#dbeafe" stroke="#3b82f6" stroke-width="1.5"/>
  <text x="445" y="113" text-anchor="middle" font-size="13" fill="#1e40af">AI App A</text>
  <rect x="400" y="170" width="90" height="36" rx="6" fill="#dbeafe" stroke="#3b82f6" stroke-width="1.5"/>
  <text x="445" y="193" text-anchor="middle" font-size="13" fill="#1e40af">AI App B</text>

  <!-- MCP box -->
  <rect x="518" y="120" width="64" height="44" rx="6" fill="#fef3c7" stroke="#d97706" stroke-width="2"/>
  <text x="550" y="138" text-anchor="middle" font-size="12" font-weight="bold" fill="#92400e">MCP</text>
  <text x="550" y="155" text-anchor="middle" font-size="11" fill="#92400e">Protocol</text>

  <!-- Tools -->
  <rect x="618" y="60" width="90" height="32" rx="6" fill="#dcfce7" stroke="#16a34a" stroke-width="1.5"/>
  <text x="663" y="81" text-anchor="middle" font-size="13" fill="#15803d">Tool 1</text>
  <rect x="618" y="120" width="90" height="32" rx="6" fill="#dcfce7" stroke="#16a34a" stroke-width="1.5"/>
  <text x="663" y="141" text-anchor="middle" font-size="13" fill="#15803d">Tool 2</text>
  <rect x="618" y="180" width="90" height="32" rx="6" fill="#dcfce7" stroke="#16a34a" stroke-width="1.5"/>
  <text x="663" y="201" text-anchor="middle" font-size="13" fill="#15803d">Tool 3</text>

  <!-- Arrows right -->
  <line x1="490" y1="108" x2="518" y2="136" stroke="#6366f1" stroke-width="1.5" marker-end="url(#arr2)"/>
  <line x1="490" y1="188" x2="518" y2="152" stroke="#6366f1" stroke-width="1.5" marker-end="url(#arr2)"/>
  <line x1="582" y1="136" x2="618" y2="76" stroke="#6366f1" stroke-width="1.5" marker-end="url(#arr2)"/>
  <line x1="582" y1="142" x2="618" y2="136" stroke="#6366f1" stroke-width="1.5" marker-end="url(#arr2)"/>
  <line x1="582" y1="148" x2="618" y2="196" stroke="#6366f1" stroke-width="1.5" marker-end="url(#arr2)"/>

  <defs>
    <marker id="arr" markerWidth="8" markerHeight="8" refX="6" refY="3" orient="auto">
      <path d="M0,0 L0,6 L8,3 z" fill="#f59e0b"/>
    </marker>
    <marker id="arr2" markerWidth="8" markerHeight="8" refX="6" refY="3" orient="auto">
      <path d="M0,0 L0,6 L8,3 z" fill="#6366f1"/>
    </marker>
  </defs>
</svg>
